<svg xmlns="http://www.w3.org/2000/svg" width="331.989" height="250.658" viewBox="0 0 331.989 250.658"><defs><style>.a{mix-blend-mode:hard-light;isolation:isolate;}.b{fill:#3f3d56;}.c{fill:#6c63ff;}.d{fill:#e6e6e6;}.e{fill:#ffb8b8;}.f{fill:#2f2e41;}.g{fill:#ffb9b9;}.h{fill:#575a89;}.i{fill:none;stroke:#3f3d56;stroke-miterlimit:10;}.j{opacity:0.1;}</style></defs><g class="a" transform="translate(0)"><path class="b" d="M403.226,196.381h-81.9a1.518,1.518,0,0,1-1.517-1.517V174.548a1.518,1.518,0,0,1,1.517-1.517h81.9a1.518,1.518,0,0,1,1.517,1.517v20.315a1.518,1.518,0,0,1-1.517,1.517Zm-81.9-22.742a.911.911,0,0,0-.91.91v20.315a.911.911,0,0,0,.91.91h81.9a.911.911,0,0,0,.91-.91V174.548a.911.911,0,0,0-.91-.91Z" transform="translate(-250.128 -142.907)"/><circle class="c" cx="6.178" cy="6.178" r="6.178" transform="translate(77.748 34.842)"/><path class="d" d="M400.787,192.745a1.03,1.03,0,1,0,0,2.059h48.541a1.03,1.03,0,0,0,0-2.059Z" transform="translate(-302.593 -155.844)"/><path class="d" d="M400.787,210.718a1.03,1.03,0,0,0,0,2.059h20.887a1.03,1.03,0,0,0,0-2.059Z" transform="translate(-302.593 -167.639)"/><path class="b" d="M386.656,373.462h-36.4a1.518,1.518,0,0,1-1.517-1.517V334.037a1.518,1.518,0,0,1,1.517-1.517h36.4a1.518,1.518,0,0,1,1.517,1.517v37.908A1.518,1.518,0,0,1,386.656,373.462Zm-36.4-40.335a.911.911,0,0,0-.91.91v37.908a.911.911,0,0,0,.91.91h36.4a.911.911,0,0,0,.91-.91V334.037a.911.911,0,0,0-.91-.91Z" transform="translate(-269.112 -247.574)"/><path class="d" d="M373.749,355.263a1.03,1.03,0,0,0,0,2.059h20.887a1.03,1.03,0,1,0,0-2.059Z" transform="translate(-284.849 -262.499)"/><path class="d" d="M373.749,372.911a1.03,1.03,0,0,0,0,2.059h20.887a1.03,1.03,0,1,0,0-2.059Z" transform="translate(-284.849 -274.08)"/><path class="c" d="M393.724,404.137a6.481,6.481,0,1,1,6.481-6.481A6.481,6.481,0,0,1,393.724,404.137Z" transform="translate(-294.38 -286.066)"/><path class="b" d="M629.617,85.393h36.4a1.519,1.519,0,0,1,1.517,1.517v37.908a1.518,1.518,0,0,1-1.517,1.517h-36.4a1.519,1.519,0,0,1-1.517-1.517V86.91A1.519,1.519,0,0,1,629.617,85.393Zm36.4,40.335a.911.911,0,0,0,.91-.91V86.91a.911.911,0,0,0-.91-.91h-36.4a.911.911,0,0,0-.91.91v37.908a.911.911,0,0,0,.91.91Z" transform="translate(-452.446 -85.393)"/><path class="d" d="M674,177.826a1.03,1.03,0,0,0,0-2.059H653.111a1.03,1.03,0,0,0,0,2.059Z" transform="translate(-468.184 -144.702)"/><path class="d" d="M674,160.177a1.03,1.03,0,1,0,0-2.059H653.111a1.03,1.03,0,0,0,0,2.059Z" transform="translate(-468.184 -133.12)"/><path class="c" d="M673.085,108.135a6.481,6.481,0,1,1-6.481,6.481A6.481,6.481,0,0,1,673.085,108.135Z" transform="translate(-477.714 -100.318)"/><path class="b" d="M319.737,291.239a51.889,51.889,0,0,1,21.967-9.93,51.138,51.138,0,0,1,24.243,1.246,51.718,51.718,0,0,1,11.313,4.9,65.835,65.835,0,0,1,10.065,7.5c3.2,2.8,6.288,5.728,9.625,8.365a53.922,53.922,0,0,0,33.55,11.8q1.511,0,3.021-.083c.545-.03.549-.883,0-.852a53.054,53.054,0,0,1-34.682-10.48c-3.459-2.586-6.616-5.543-9.84-8.409a76.111,76.111,0,0,0-9.881-7.713,52.2,52.2,0,0,0-57.632,1.314c-.8.556-1.582,1.138-2.351,1.736-.432.337.175.936.6.6Z" transform="translate(-249.586 -212.812)"/><circle class="b" cx="4.429" cy="4.429" r="4.429" transform="translate(65.27 73.687)"/><circle class="b" cx="4.429" cy="4.429" r="4.429" transform="translate(230.05 132.497)"/><path class="b" d="M725.86,332.748H653.587a1.518,1.518,0,0,1-1.517-1.517v-37.6a1.519,1.519,0,0,1,1.517-1.517H725.86a1.518,1.518,0,0,1,1.517,1.517v37.6A1.518,1.518,0,0,1,725.86,332.748Zm-72.273-40.031a.911.911,0,0,0-.91.91v37.6a.911.911,0,0,0,.91.91H725.86a.911.911,0,0,0,.91-.91v-37.6a.911.911,0,0,0-.91-.91Z" transform="translate(-468.176 -221.054)"/><circle class="c" cx="6.178" cy="6.178" r="6.178" transform="translate(191.351 78.2)"/><path class="d" d="M731.28,318.883a1.03,1.03,0,1,0,0,2.059H770.2a1.03,1.03,0,0,0,0-2.059Z" transform="translate(-519.483 -238.624)"/><path class="d" d="M731.28,336.856a1.03,1.03,0,1,0,0,2.059h20.887a1.03,1.03,0,0,0,0-2.059Z" transform="translate(-519.483 -250.419)"/><path class="d" d="M675.24,365.589c-.783,0-1.421.462-1.421,1.03s.637,1.03,1.421,1.03h57.347c.783,0,1.421-.462,1.421-1.03s-.637-1.03-1.421-1.03Z" transform="translate(-482.449 -269.275)"/><path class="d" d="M675.24,383.562c-.783,0-1.421.462-1.421,1.03s.637,1.03,1.421,1.03h57.347c.783,0,1.421-.462,1.421-1.03s-.637-1.03-1.421-1.03Z" transform="translate(-482.449 -281.07)"/><path class="b" d="M638.333,485.2c4.077-1.769,8.63-.227,12.473,1.4,1.979.84,3.938,1.736,5.986,2.4a34.146,34.146,0,0,0,5.278,1.251,37.3,37.3,0,0,0,10.841.066,37.857,37.857,0,0,0,10.462-3.042,35.372,35.372,0,0,0,9.055-5.92q.515-.465,1.009-.951c.393-.385-.21-.987-.6-.6A34.382,34.382,0,0,1,684,486.034a37,37,0,0,1-10.263,3.3,36.248,36.248,0,0,1-10.815.187,34.053,34.053,0,0,1-5.3-1.151,56.017,56.017,0,0,1-5.844-2.27c-3.879-1.666-8.189-3.3-12.451-2.148a10.389,10.389,0,0,0-1.43.511C637.4,484.677,637.834,485.411,638.333,485.2Z" transform="translate(-458.733 -344.146)"/><path class="c" d="M569.807,489.662H535.661l8.036-13.918a1.641,1.641,0,0,1,2.842,0l3.433,5.946,5.837-10.11a2.054,2.054,0,0,1,3.558,0Z" transform="translate(-391.781 -338.159)"/><path class="b" d="M562.7,481.558H526.3a1.518,1.518,0,0,1-1.517-1.517V459.726a1.518,1.518,0,0,1,1.517-1.517h36.4a1.518,1.518,0,0,1,1.516,1.517v20.315A1.518,1.518,0,0,1,562.7,481.558Zm-36.4-22.742a.911.911,0,0,0-.91.91v20.315a.911.911,0,0,0,.91.91h36.4a.911.911,0,0,0,.91-.91V459.726a.911.911,0,0,0-.91-.91Z" transform="translate(-384.645 -330.058)"/><path class="e" d="M819.618,426.256l-6.488,3.295c-2.316,1.176-4.551.975-5.406-1.477h0a4.29,4.29,0,0,1,3.263-5.631l6.166-1.151,26.409-8.762,16-11.344,5.864,9.343L846.94,420.5Z" transform="translate(-570.169 -292.636)"/><path class="e" d="M804.33,687.391l-4.964-.827.552-9.376h5.24Z" transform="translate(-524.594 -444.412)"/><path class="e" d="M937.668,662.127l-4.8,1.5-3.733-8.619,4.677-2.361Z" transform="translate(-609.754 -428.307)"/><path class="f" d="M958,571.131l-6.067,2.482L922.98,535.555l-9.1,44.676-6.067-1.1c-3.892-38.516-7.065-77.8-3.171-96.384l22.476-.965,10.2,32.542,4.964,22.062Z" transform="translate(-632.764 -345.526)"/><path class="f" d="M907.357,792.574h0a4.356,4.356,0,0,1-2.7-.287l-2.949-1.327c-2.473-.127-4.156.366-5.533-1.431a3.608,3.608,0,0,1-.421-3.637h0a3.633,3.633,0,0,1,2.967-2.159l4.05-2.552.213,1.913c1.851,1.049,4.049.6,6.378-.425l1.271,4.449a4.356,4.356,0,0,1-3.276,5.456Z" transform="translate(-627.894 -542.013)"/><path class="f" d="M1051.65,768.646h0a4.356,4.356,0,0,1-2.647.605l-3.22-.3c-2.38.683-3.812,1.7-5.7.443a3.607,3.607,0,0,1-1.579-3.3h0a3.633,3.633,0,0,1,2.1-3.005l3-3.729.823,1.741c2.091.391,4.023-.751,5.894-2.473l2.647,3.8a4.356,4.356,0,0,1-1.326,6.224Z" transform="translate(-721.771 -527.211)"/><circle class="e" cx="9.928" cy="9.928" r="9.928" transform="translate(276.151 77.237)"/><path class="e" d="M839.656,285.068l-12.962-2.758-1.654-10.755,9.1-1.93Z" transform="translate(-541.443 -176.945)"/><path class="c" d="M929.992,418.845H906.826l5.222-13.109c-.38-4.511,1.532-7.828,4.269-10.717l3.471-8.715c5.609-3.691,9.837-3.416,14.34,1.379C939.465,395.241,935.771,406.6,929.992,418.845Z" transform="translate(-635.363 -281.213)"/><path class="e" d="M928.232,476.789l-.659,7.247c-.235,2.587-1.593,4.373-4.125,3.794h0a4.29,4.29,0,0,1-3.035-5.758l2.3-5.835,6.619-27.026-1.1-19.58h11.031l-1.379,20.959Z" transform="translate(-644.083 -311.303)"/><path class="c" d="M954.011,404.922H941.325l.889-8.275a5.741,5.741,0,0,1,5.449-5.5h0a5.741,5.741,0,0,1,6.023,5.509Z" transform="translate(-658.003 -286.044)"/><circle class="f" cx="3.732" cy="3.732" r="3.732" transform="translate(294.635 69.493)"/><path class="f" d="M973,289.036a3.729,3.729,0,0,1,3.73-3.488c-.077-.01-.153-.022-.232-.027a3.732,3.732,0,0,0-.479,7.448c.078.005.156,0,.233,0A3.729,3.729,0,0,1,973,289.036Z" transform="translate(-678.482 -216.725)"/><path class="f" d="M932.994,298.446c-3.328-2.761-12.874.748-13.49,2.6-4.5.613-7.908,3.239-7.908,7.908h0c2.676,1.1,5.719.961,9.008,0,5.244,4.273,5.6,9.645,2.414,15.816l3.923.078,4.863-7.108.233,7.21,8.993-.18V314.442a21.6,21.6,0,0,0-2.306-9.9C937.323,301.823,935.149,300.233,932.994,298.446Z" transform="translate(-638.494 -224.541)"/><ellipse class="e" cx="1.784" cy="2.498" rx="1.784" ry="2.498" transform="translate(284.341 87.162)"/><path class="g" d="M296.282,326.832s1.074-18.593,6.651-14.368-2.435,16.092-2.435,16.092Z" transform="translate(-234.686 -234.001)"/><path class="g" d="M227.9,515.9s12.388,13.907,5.457,14.863-9.657-13.1-9.657-13.1Z" transform="translate(-187.056 -367.919)"/><path class="h" d="M170.969,324.254h0a8.158,8.158,0,0,1,6,6.754l3.94,28.046,5.524,22.372s2.762,2.486,1.657,3.867,1.381,7.181,1.381,7.181l-6.9,2.21s-.829-5.8-2.21-6.076c-1.214-.243-14.8-36.535-18.074-45.328-.452-1.212-.707-1.9-.707-1.9S162.13,322.874,170.969,324.254Z" transform="translate(-146.285 -242.101)"/><path class="g" d="M182.482,749.885l4.241,7.516c3.284,7.012.366,8.286-7.687,4.81l-1.836-8.875Z" transform="translate(-156.538 -521.474)"/><path class="f" d="M180.822,773.616s2.013-3.278,2.742-2.729,3.732,2.926,3.732,2.926l3.912,3.747s13.218,1.4,4.819,6.029-13.04.791-13.04.791-11.764.612-11.574-2.67,3.984-8.474,3.984-8.474S180.177,776.441,180.822,773.616Z" transform="translate(-152.737 -535.216)"/><path class="f" d="M137.815,490.839l3.976,48.111s.133,28.76,4.374,34.327,4.374,8.35,4.374,8.35l8.747-4.506s-4.506-7.509-3.578-8.658a6.408,6.408,0,0,0,1.193-2.475L154.515,536.3l4.506-51.689Z" transform="translate(-130.69 -347.384)"/><path class="i" d="M155.551,766.85" transform="translate(-142.329 -532.608)"/><path class="g" d="M29.191,662.468l-3.711,9.807-8.416-3.518,4.44-7.349Z" transform="translate(-11.198 -434.057)"/><path class="f" d="M128.889,763.715s3.156-1.973,3.551-1.184,1.973,4.143,1.973,4.143l1.776,4.932s10.85,6.9,1.578,7.3-11.639-4.932-11.639-4.932-10.456-4.537-8.878-7.3,7.1-5.626,7.1-5.626S127.113,765.885,128.889,763.715Z" transform="translate(-117.087 -528.8)"/><path class="f" d="M171.479,500.587l2.121,44.267s-19.35,40.026-21.471,41.086a5.323,5.323,0,0,0-2.651,3.181l-11.663-2.916,5.3-8.482,11.663-28.363a4.676,4.676,0,0,0,2.386-3.446c.53-2.651,1.59-2.651-1.06-3.181a3.293,3.293,0,0,1-2.651-3.181l-8.747-40.291Z" transform="translate(-130.69 -357)"/><circle class="g" cx="10.603" cy="10.603" r="10.603" transform="translate(19.082 72.303) rotate(-80.783)"/><path class="g" d="M176.946,272.159s-.8,13.519-1.855,14.844,11.133,1.06,11.133,1.06-.8-11.4,0-12.458S176.946,272.159,176.946,272.159Z" transform="translate(-155.109 -207.961)"/><path class="h" d="M170.249,374.636s-29.953-2.65-35.518,0c0,0,2.049-7.6,1.519-8.394-.385-.581.677-22.23.344-34.718-.189-7.047-1.815-13.928,2.911-19.16a14.713,14.713,0,0,1,5.3-4s-.529-5.036,2.121-5.3c0,0,10.075-1.062,13.784,2.121,1.186,1.011,1.932,4.09,2.011,6.744-1.836,9.026-1.186,19.043.5,29.434.1.66.217,1.323.33,1.987C165.334,353.657,168.036,364.282,170.249,374.636Z" transform="translate(-128.666 -228.132)"/><path class="f" d="M178.651,242.5a14.114,14.114,0,0,1,2.663.368,6.739,6.739,0,0,0,7.2-5.025,3.855,3.855,0,0,1,.368-1.2,2.378,2.378,0,0,1,2.528-.769,19.517,19.517,0,0,0,2.731.664,4.181,4.181,0,0,0,3.609-2.042,6.925,6.925,0,0,0,.886-4.183l-.694.728a3.525,3.525,0,0,1-.314-1.916,2.223,2.223,0,0,0-2.105.539c-.612.065-.15-1.135-.6-1.55a1.051,1.051,0,0,0-.74-.138c-1.3.013-2.355-.983-3.38-1.785a14.364,14.364,0,0,0-6.067-2.767,7.981,7.981,0,0,0-4.427.215,9.455,9.455,0,0,0-2.989,2.121,18.25,18.25,0,0,0-5.023,7.452,12.545,12.545,0,0,0-.06,7.275c.366,1.235,1.468,5.463,3.082,5.562C177.344,246.173,176.126,242.652,178.651,242.5Z" transform="translate(-152.943 -175.842)"/><path class="h" d="M190.479,328.181l3.8.407s3.729,7.235,3.458,8.743-.86.593.818,3.007,6.441,8.655,7.031,9.571,16.667-11.351,15.668-15.026c0,0,5.078,3.643,7.253,4.128,0,0-16.569,21.73-18.878,24.511s-4.167,2.21-7.34.561-19.226-18.1-19.226-18.1Z" transform="translate(-160.383 -244.726)"/><path class="j" d="M193.354,393.3l-13.2-13.2,3.341-1.09,9.532,12.306C193.127,391.977,193.241,392.64,193.354,393.3Z" transform="translate(-158.474 -278.084)"/></g></svg>